<svg width="156.2894287109375px" height="141.2px" xmlns="http://www.w3.org/2000/svg" viewBox="171.85528564453125 4.400000000000006 156.2894287109375 141.2" style="background: rgba(0, 0, 0, 0);" preserveAspectRatio="xMidYMid"><defs><linearGradient id="editing-gradient-gradient" x1="0" x2="1" y1="0.5" y2="0.5" gradientUnits="objectBoundingBox"><stop offset="0" stop-color="#f0f"></stop><stop offset="1" stop-color="#0ff"></stop></linearGradient></defs><g><g transform="translate(202.2188792526722, 99.16720008850098)"><path d="M13.44-9.79L13.44-9.79L13.44-9.79Q15.87-12.10 17.82-14.40L17.82-14.40L17.82-14.40Q19.78-16.70 21.47-19.55L21.47-19.55L21.47-19.55Q23.17-22.40 24.61-26.08L24.61-26.08L24.61-26.08Q26.05-29.76 27.46-34.75L27.46-34.75L27.46-34.75Q28.22-37.63 28.77-40.32L28.77-40.32L28.77-40.32Q29.31-43.01 29.18-45.57L29.18-45.57L29.18-45.57Q29.18-46.08 29.25-46.08L29.25-46.08L29.25-46.08Q29.38-46.08 29.44-45.89L29.44-45.89L29.44-45.89Q29.50-45.70 29.57-45.57L29.57-45.57L29.57-45.57Q30.53-42.56 30.21-39.26L30.21-39.26L30.21-39.26Q29.89-35.97 28.99-32.54L28.99-32.54L28.99-32.54Q28.10-29.12 26.91-25.60L26.91-25.60L26.91-25.60Q25.73-22.08 24.90-18.56L24.90-18.56L24.90-18.56Q24.38-16.38 24.13-13.95L24.13-13.95L24.13-13.95Q23.87-11.52 23.97-9.12L23.97-9.12L23.97-9.12Q24.06-6.72 24.58-4.42L24.58-4.42L24.58-4.42Q25.09-2.11 26.18-0.13L26.18-0.13L26.18-0.13Q26.24-0.06 26.24 0.06L26.24 0.06L26.24 0.19L26.24 0.19Q26.05 0.19 25.98 0.13L25.98 0.13L25.86 0L25.86 0Q23.36-2.69 22.46-6.59L22.46-6.59L22.46-6.59Q21.57-5.50 20.64-4.48L20.64-4.48L20.64-4.48Q19.71-3.46 18.05-2.37L18.05-2.37L18.05-2.37Q15.36-0.58 12.06 0.10L12.06 0.10L12.06 0.10Q8.77 0.77 5.50-0.77L5.50-0.77L5.50-0.77Q3.58-1.73 2.56-3.30L2.56-3.30L2.56-3.30Q1.54-4.86 1.06-6.69L1.06-6.69L1.06-6.69Q0.58-8.51 0.48-10.40L0.48-10.40L0.48-10.40Q0.38-12.29 0.32-13.82L0.32-13.82L0.32-13.82Q0.19-16.83 0.61-19.65L0.61-19.65L0.61-19.65Q1.02-22.46 1.73-24.93L1.73-24.93L1.73-24.93Q2.43-27.39 3.33-29.38L3.33-29.38L3.33-29.38Q4.22-31.36 5.06-32.70L5.06-32.70L5.06-32.70Q5.12-32.83 5.28-32.99L5.28-32.99L5.28-32.99Q5.44-33.15 5.50-33.15L5.50-33.15L5.50-33.15Q5.63-33.09 5.54-32.80L5.54-32.80L5.54-32.80Q5.44-32.51 5.38-32.38L5.38-32.38L5.38-32.38Q4.42-29.50 3.65-26.50L3.65-26.50L3.65-26.50Q2.88-23.49 2.50-20.42L2.50-20.42L2.50-20.42Q2.11-17.34 2.21-14.24L2.21-14.24L2.21-14.24Q2.30-11.14 3.07-8L3.07-8L3.07-8Q3.39-6.72 4.03-5.34L4.03-5.34L4.03-5.34Q4.67-3.97 6.14-2.88L6.14-2.88L6.14-2.88Q6.98-2.24 7.87-1.98L7.87-1.98L7.87-1.98Q8.77-1.73 9.60-1.70L9.60-1.70L9.60-1.70Q10.43-1.66 11.17-1.79L11.17-1.79L11.17-1.79Q11.90-1.92 12.54-2.11L12.54-2.11L12.54-2.11Q15.42-2.82 17.50-4.67L17.50-4.67L17.50-4.67Q19.58-6.53 21.06-8.45L21.06-8.45L21.06-8.45Q21.63-9.09 22.02-9.92L22.02-9.92L22.02-9.92Q21.95-11.14 22.08-12.74L22.08-12.74L22.08-12.74Q22.21-14.34 22.40-15.74L22.40-15.74L22.40-15.74Q22.59-17.15 22.72-18.11L22.72-18.11L22.72-18.11Q22.85-19.07 22.78-19.01L22.78-19.01L22.78-19.01Q21.31-15.74 19.30-13.28L19.30-13.28L19.30-13.28Q17.28-10.82 15.81-9.28L15.81-9.28L15.81-9.28Q14.85-8.26 13.66-7.49L13.66-7.49L13.66-7.49Q12.48-6.72 11.33-6.40L11.33-6.40L11.33-6.40Q10.18-6.08 9.22-6.40L9.22-6.40L9.22-6.40Q8.26-6.72 7.81-7.87L7.81-7.87L7.81-7.87Q6.91-10.50 6.53-13.66L6.53-13.66L6.53-13.66Q6.14-16.83 6.46-20.10L6.46-20.10L6.46-20.10Q7.17-26.62 9.57-32.96L9.57-32.96L9.57-32.96Q11.97-39.30 16.32-44.54L16.32-44.54L16.32-44.54Q16.58-44.86 16.80-44.99L16.80-44.99L16.80-44.99Q17.02-45.12 16.64-44.48L16.64-44.48L16.64-44.48Q15.23-42.30 13.92-39.49L13.92-39.49L13.92-39.49Q12.61-36.67 11.55-33.57L11.55-33.57L11.55-33.57Q10.50-30.46 9.70-27.20L9.70-27.20L9.70-27.20Q8.90-23.94 8.58-20.86L8.58-20.86L8.58-20.86Q8.26-17.79 8.32-14.82L8.32-14.82L8.32-14.82Q8.38-11.84 9.28-9.54L9.28-9.54L9.28-9.54Q9.60-8.70 10.14-8.48L10.14-8.48L10.14-8.48Q10.69-8.26 11.26-8.42L11.26-8.42L11.26-8.42Q11.84-8.58 12.42-8.99L12.42-8.99L12.42-8.99Q12.99-9.41 13.44-9.79ZM14.46-4.67L14.46-4.67L14.46-4.67Q13.76-4.29 12.99-3.90L12.99-3.90L12.99-3.90Q12.22-3.52 11.42-3.30L11.42-3.30L11.42-3.30Q10.62-3.07 9.73-3.07L9.73-3.07L9.73-3.07Q8.83-3.07 7.87-3.39L7.87-3.39L7.87-3.39Q6.02-4.03 5.22-5.54L5.22-5.54L5.22-5.54Q4.42-7.04 3.97-8.45L3.97-8.45L3.97-8.45Q2.94-11.52 3.04-14.56L3.04-14.56L3.04-14.56Q3.14-17.60 3.52-21.06L3.52-21.06L3.52-21.06Q3.78-23.49 4.58-26.40L4.58-26.40L4.58-26.40Q5.38-29.31 6.59-32.19L6.59-32.19L6.59-32.19Q7.81-35.07 9.31-37.57L9.31-37.57L9.31-37.57Q10.82-40.06 12.48-41.66L12.48-41.66L12.48-41.66Q12.61-41.79 12.96-42.14L12.96-42.14L12.96-42.14Q13.31-42.50 13.44-42.37L13.44-42.37L13.44-42.37Q13.50-42.30 12.86-41.28L12.86-41.28L12.86-41.28Q12.22-40.26 11.33-38.53L11.33-38.53L11.33-38.53Q10.43-36.80 9.54-34.59L9.54-34.59L9.54-34.59Q8.64-32.38 7.78-29.86L7.78-29.86L7.78-29.86Q6.91-27.33 6.34-24.64L6.34-24.64L6.34-24.64Q5.76-22.02 5.57-19.52L5.57-19.52L5.57-19.52Q5.38-17.02 5.41-14.94L5.41-14.94L5.41-14.94Q5.44-12.86 5.60-11.42L5.60-11.42L5.60-11.42Q5.76-9.98 5.89-9.47L5.89-9.47L5.89-9.47Q6.21-8.19 6.82-6.82L6.82-6.82L6.82-6.82Q7.42-5.44 8.51-4.93L8.51-4.93L8.51-4.93Q9.60-4.42 11.23-4.61L11.23-4.61L11.23-4.61Q12.86-4.80 14.14-5.50L14.14-5.50L14.14-5.50Q14.21-5.57 14.53-5.76L14.53-5.76L14.53-5.76Q14.85-5.95 15.20-6.18L15.20-6.18L15.20-6.18Q15.55-6.40 15.84-6.56L15.84-6.56L15.84-6.56Q16.13-6.72 16.19-6.66L16.19-6.66L16.19-6.66Q16.26-6.53 16.13-6.27L16.13-6.27L16.13-6.27Q16-6.02 15.71-5.70L15.71-5.70L15.71-5.70Q15.42-5.38 15.07-5.09L15.07-5.09L15.07-5.09Q14.72-4.80 14.46-4.67ZM31.81-17.98L31.81-17.98L31.81-17.98Q31.04-14.91 29.98-11.71L29.98-11.71L29.98-11.71Q28.93-8.51 28.16-6.14L28.16-6.14L28.16-6.14Q28.03-5.82 27.90-5.50L27.90-5.50L27.90-5.50Q27.78-5.18 27.65-5.25L27.65-5.25L27.65-5.25Q27.46-5.31 27.46-5.66L27.46-5.66L27.46-5.66Q27.46-6.02 27.46-6.34L27.46-6.34L27.46-6.34Q27.71-11.14 28.90-15.87L28.90-15.87L28.90-15.87Q30.08-20.61 31.55-25.41L31.55-25.41L31.55-25.41Q32.45-28.42 33.25-31.52L33.25-31.52L33.25-31.52Q34.05-34.62 34.18-38.21L34.18-38.21L34.18-38.21Q34.18-38.66 34.30-38.66L34.30-38.66L34.30-38.66Q34.50-38.66 34.62-38.21L34.62-38.21L34.62-38.21Q35.33-36.48 35.14-33.76L35.14-33.76L35.14-33.76Q34.94-31.04 34.34-28.10L34.34-28.10L34.34-28.10Q33.73-25.15 32.96-22.40L32.96-22.40L32.96-22.40Q32.19-19.65 31.81-17.98ZM32.51-32L32.51-32L32.51-32Q31.62-28.54 30.59-24.90L30.59-24.90L30.59-24.90Q29.57-21.25 27.71-17.98L27.71-17.98L27.71-17.98Q27.58-17.79 27.30-17.31L27.30-17.31L27.30-17.31Q27.01-16.83 26.82-16.90L26.82-16.90L26.82-16.90Q26.69-16.90 26.69-17.41L26.69-17.41L26.69-17.41Q26.69-17.92 26.75-18.24L26.75-18.24L26.75-18.24Q26.82-19.01 27.01-20.13L27.01-20.13L27.01-20.13Q27.20-21.25 27.49-22.43L27.49-22.43L27.49-22.43Q27.78-23.62 28.06-24.74L28.06-24.74L28.06-24.74Q28.35-25.86 28.61-26.62L28.61-26.62L28.61-26.62Q28.74-27.01 29.02-28.13L29.02-28.13L29.02-28.13Q29.31-29.25 29.63-30.78L29.63-30.78L29.63-30.78Q29.95-32.32 30.27-34.14L30.27-34.14L30.27-34.14Q30.59-35.97 30.82-37.76L30.82-37.76L30.82-37.76Q31.04-39.55 31.10-41.15L31.10-41.15L31.10-41.15Q31.17-42.75 30.98-43.90L30.98-43.90L30.98-43.90Q30.85-44.48 31.04-44.48L31.04-44.48L31.04-44.48Q31.17-44.48 31.30-44.35L31.30-44.35L31.30-44.35Q31.42-44.22 31.49-44.10L31.49-44.10L31.49-44.10Q32.26-43.01 32.61-41.47L32.61-41.47L32.61-41.47Q32.96-39.94 33.06-38.27L33.06-38.27L33.06-38.27Q33.15-36.61 32.99-34.94L32.99-34.94L32.99-34.94Q32.83-33.28 32.51-32ZM26.75-4.35L26.75-4.35L26.75-4.35Q26.94-3.07 27.17-2.05L27.17-2.05L27.17-2.05Q27.39-1.02 27.97-0.06L27.97-0.06L27.97-0.06Q28.03 0 28.06 0.16L28.06 0.16L28.06 0.16Q28.10 0.32 27.97 0.32L27.97 0.32L27.97 0.32Q27.65 0.32 27.33 0L27.33 0L27.33 0Q26.62-0.83 26.18-1.60L26.18-1.60L26.18-1.60Q25.73-2.37 25.34-4.29L25.34-4.29L25.34-4.29Q25.22-5.06 25.15-6.14L25.15-6.14L25.15-6.14Q25.09-7.23 25.15-8.26L25.15-8.26L25.15-8.26Q25.22-9.28 25.38-9.95L25.38-9.95L25.38-9.95Q25.54-10.62 25.79-10.62L25.79-10.62L25.79-10.62Q25.86-10.62 25.95-10.27L25.95-10.27L25.95-10.27Q26.05-9.92 26.14-9.50L26.14-9.50L26.14-9.50Q26.24-9.09 26.27-8.67L26.27-8.67L26.27-8.67Q26.30-8.26 26.30-8.13L26.30-8.13L26.30-8.13Q26.50-6.14 26.75-4.35ZM64.19-33.34L64.19-33.34L64.19-33.34Q63.30-29.31 61.86-25.31L61.86-25.31L61.86-25.31Q60.42-21.31 59.01-17.73L59.01-17.73L59.01-17.73Q58.94-17.41 58.69-16.90L58.69-16.90L58.69-16.90Q58.43-16.38 58.11-16.51L58.11-16.51L58.11-16.51Q58.05-16.51 58.05-17.09L58.05-17.09L58.05-17.09Q58.05-17.66 58.11-17.86L58.11-17.86L58.11-17.86Q58.24-18.75 58.46-20L58.46-20L58.46-20Q58.69-21.25 58.98-22.53L58.98-22.53L58.98-22.53Q59.26-23.81 59.58-25.06L59.58-25.06L59.58-25.06Q59.90-26.30 60.16-27.20L60.16-27.20L60.16-27.20Q60.35-27.58 60.64-28.93L60.64-28.93L60.64-28.93Q60.93-30.27 61.25-32.10L61.25-32.10L61.25-32.10Q61.57-33.92 61.82-36.03L61.82-36.03L61.82-36.03Q62.08-38.14 62.14-40.10L62.14-40.10L62.14-40.10Q62.21-42.05 62.11-43.65L62.11-43.65L62.11-43.65Q62.02-45.25 61.57-46.02L61.57-46.02L61.57-46.02Q61.25-46.66 61.44-46.72L61.44-46.72L61.44-46.72Q61.70-46.72 62.02-46.40L62.02-46.40L62.02-46.40Q62.98-45.44 63.52-43.81L63.52-43.81L63.52-43.81Q64.06-42.18 64.32-40.29L64.32-40.29L64.32-40.29Q64.58-38.40 64.51-36.54L64.51-36.54L64.51-36.54Q64.45-34.69 64.19-33.34ZM65.86-40.45L65.86-40.45L65.86-40.45Q66.50-39.17 66.62-37.31L66.62-37.31L66.62-37.31Q66.75-35.46 66.56-33.31L66.56-33.31L66.56-33.31Q66.37-31.17 65.95-28.90L65.95-28.90L65.95-28.90Q65.54-26.62 65.02-24.54L65.02-24.54L65.02-24.54Q64.51-22.46 64.03-20.67L64.03-20.67L64.03-20.67Q63.55-18.88 63.23-17.73L63.23-17.73L63.23-17.73Q62.34-14.40 61.60-11.10L61.60-11.10L61.60-11.10Q60.86-7.81 60.86-5.50L60.86-5.50L60.86-5.50Q60.86-4.67 60.80-4.67L60.80-4.67L60.80-4.67Q60.67-4.54 60.51-4.86L60.51-4.86L60.51-4.86Q60.35-5.18 60.22-5.50L60.22-5.50L60.22-5.50Q59.58-7.81 59.68-10.27L59.68-10.27L59.68-10.27Q59.78-12.74 60.29-15.33L60.29-15.33L60.29-15.33Q60.80-17.92 61.60-20.58L61.60-20.58L61.60-20.58Q62.40-23.23 63.17-25.86L63.17-25.86L63.17-25.86Q64.06-29.18 64.96-32.80L64.96-32.80L64.96-32.80Q65.86-36.42 65.54-40.45L65.54-40.45L65.54-40.45Q65.54-40.77 65.50-40.80L65.50-40.80L65.50-40.80Q65.47-40.83 65.54-40.83L65.54-40.83L65.54-40.83Q65.66-40.83 65.86-40.45ZM56.64-27.33L56.64-27.33L56.64-27.33Q52.80-25.66 50.08-22.69L50.08-22.69L50.08-22.69Q47.36-19.71 45.95-16.06L45.95-16.06L45.95-16.06Q45.38-14.53 45.02-13.15L45.02-13.15L45.02-13.15Q44.67-11.78 44.54-10.24L44.54-10.24L44.54-10.24Q44.48-9.47 44.93-9.66L44.93-9.66L44.93-9.66Q45.38-9.86 45.70-10.24L45.70-10.24L45.70-10.24Q46.46-11.20 47.10-12.13L47.10-12.13L47.10-12.13Q47.74-13.06 48.42-14.05L48.42-14.05L48.42-14.05Q49.09-15.04 49.82-16.16L49.82-16.16L49.82-16.16Q50.56-17.28 51.46-18.56L51.46-18.56L51.46-18.56Q52.42-19.90 53.28-21.22L53.28-21.22L53.28-21.22Q54.14-22.53 54.82-23.68L54.82-23.68L54.82-23.68Q55.49-24.83 55.97-25.79L55.97-25.79L55.97-25.79Q56.45-26.75 56.64-27.33ZM55.23-22.27L55.23-22.27L55.23-22.27Q52.93-17.79 50.50-13.86L50.50-13.86L50.50-13.86Q48.06-9.92 44.93-6.66L44.93-6.66L44.93-6.66Q42.94-4.54 42.56-7.30L42.56-7.30L42.56-7.30Q42.43-9.47 42.88-11.84L42.88-11.84L42.88-11.84Q43.33-14.21 44.22-16.32L44.22-16.32L44.22-16.32Q45.06-18.37 46.27-20.29L46.27-20.29L46.27-20.29Q47.49-22.21 49.09-23.81L49.09-23.81L49.09-23.81Q50.69-25.41 52.64-26.50L52.64-26.50L52.64-26.50Q54.59-27.58 56.83-27.97L56.83-27.97L56.83-27.97Q57.60-30.66 58.30-33.25L58.30-33.25L58.30-33.25Q59.01-35.84 59.46-38.34L59.46-38.34L59.46-38.34Q59.90-40.83 59.94-43.17L59.94-43.17L59.94-43.17Q59.97-45.50 59.52-47.62L59.52-47.62L59.52-47.62Q59.39-48 59.46-48L59.46-48L59.46-48Q59.58-48.06 59.68-47.87L59.68-47.87L59.68-47.87Q59.78-47.68 59.78-47.62L59.78-47.62L59.78-47.62Q61.31-44.54 61.28-41.02L61.28-41.02L61.28-41.02Q61.25-37.50 60.42-33.73L60.42-33.73L60.42-33.73Q59.58-29.95 58.34-26.05L58.34-26.05L58.34-26.05Q57.09-22.14 56.19-18.24L56.19-18.24L56.19-18.24Q55.62-15.74 55.52-12.90L55.52-12.90L55.52-12.90Q55.42-10.05 56.06-7.30L56.06-7.30L56.06-7.30Q56.70-4.42 58.43-2.40L58.43-2.40L58.43-2.40Q60.16-0.38 62.40-0.19L62.40-0.19L62.40-0.19Q62.91-0.13 62.91 0L62.91 0L62.91 0Q62.91 0.13 62.75 0.16L62.75 0.16L62.75 0.16Q62.59 0.19 62.46 0.19L62.46 0.19L62.46 0.19Q61.12 0.19 59.81-0.32L59.81-0.32L59.81-0.32Q58.50-0.83 57.34-1.79L57.34-1.79L57.34-1.79Q56.19-2.75 55.33-4.06L55.33-4.06L55.33-4.06Q54.46-5.38 54.08-7.04L54.08-7.04L54.08-7.04Q53.95-7.55 53.95-7.87L53.95-7.87L53.95-7.87Q52.16-4.48 49.63-2.40L49.63-2.40L49.63-2.40Q47.10-0.32 43.26 0L43.26 0L43.26 0Q40.38 0.19 38.88-1.34L38.88-1.34L38.88-1.34Q37.38-2.88 36.80-5.06L36.80-5.06L36.80-5.06Q36.22-7.23 36.42-9.63L36.42-9.63L36.42-9.63Q36.61-12.03 37.12-13.57L37.12-13.57L37.12-13.57Q38.59-17.98 40.83-21.34L40.83-21.34L40.83-21.34Q43.07-24.70 45.31-26.05L45.31-26.05L45.31-26.05Q45.44-26.18 45.70-26.27L45.70-26.27L45.70-26.27Q45.95-26.37 46.02-26.30L46.02-26.30L46.02-26.30Q46.14-26.24 45.95-26.05L45.95-26.05L45.95-26.05Q45.76-25.86 45.70-25.79L45.70-25.79L45.70-25.79Q42.24-22.34 40.35-17.89L40.35-17.89L40.35-17.89Q38.46-13.44 38.34-8.83L38.34-8.83L38.34-8.83Q38.27-7.68 38.40-6.34L38.40-6.34L38.40-6.34Q38.53-4.99 39.01-3.81L39.01-3.81L39.01-3.81Q39.49-2.62 40.38-1.82L40.38-1.82L40.38-1.82Q41.28-1.02 42.82-1.02L42.82-1.02L42.82-1.02Q44.99-0.96 46.94-2.34L46.94-2.34L46.94-2.34Q48.90-3.71 50.34-5.73L50.34-5.73L50.34-5.73Q51.78-7.74 52.67-10.05L52.67-10.05L52.67-10.05Q53.57-12.35 53.70-14.27L53.70-14.27L53.70-14.27Q53.25-13.76 52.93-13.22L52.93-13.22L52.93-13.22Q52.61-12.67 52.10-12.03L52.10-12.03L52.10-12.03Q52.03-11.90 51.71-11.62L51.71-11.62L51.71-11.62Q51.39-11.33 51.20-11.39L51.20-11.39L51.20-11.39Q51.07-11.46 51.33-12.13L51.33-12.13L51.33-12.13Q51.58-12.80 51.97-13.60L51.97-13.60L51.97-13.60Q52.35-14.40 52.74-15.14L52.74-15.14L52.74-15.14Q53.12-15.87 53.25-16.13L53.25-16.13L53.25-16.13Q53.95-17.60 54.34-19.07L54.34-19.07L54.34-19.07Q54.72-20.54 55.23-22.27ZM64.13-1.47L64.13-1.47L64.13-1.47Q64.13-1.34 63.81-1.22L63.81-1.22L63.81-1.22Q63.62-1.15 63.49-1.15L63.49-1.15L63.49-1.15Q62.27-1.02 61.22-1.28L61.22-1.28L61.22-1.28Q60.16-1.54 59.07-2.62L59.07-2.62L59.07-2.62Q58.50-3.20 58.08-4.35L58.08-4.35L58.08-4.35Q57.66-5.50 57.44-6.59L57.44-6.59L57.44-6.59Q57.22-7.68 57.25-8.51L57.25-8.51L57.25-8.51Q57.28-9.34 57.54-9.28L57.54-9.28L57.54-9.28Q57.60-9.34 57.76-9.02L57.76-9.02L57.76-9.02Q57.92-8.70 58.05-8.29L58.05-8.29L58.05-8.29Q58.18-7.87 58.30-7.46L58.30-7.46L58.30-7.46Q58.43-7.04 58.50-6.85L58.50-6.85L58.50-6.85Q58.82-5.82 59.26-4.99L59.26-4.99L59.26-4.99Q59.71-4.16 60.35-3.52L60.35-3.52L60.35-3.52Q61.89-1.73 63.68-1.66L63.68-1.66L63.68-1.66Q63.81-1.66 63.97-1.63L63.97-1.63L63.97-1.63Q64.13-1.60 64.13-1.47ZM54.85-28.48L54.85-28.48L54.85-28.48Q54.85-28.42 54.75-28.35L54.75-28.35L54.75-28.35Q54.66-28.29 54.27-28.16L54.27-28.16L54.27-28.16Q53.44-27.84 52.22-27.10L52.22-27.10L52.22-27.10Q51.01-26.37 49.66-25.28L49.66-25.28L49.66-25.28Q48.32-24.19 47.01-22.75L47.01-22.75L47.01-22.75Q45.70-21.31 44.74-19.65L44.74-19.65L44.74-19.65Q43.78-17.92 43.10-16.29L43.10-16.29L43.10-16.29Q42.43-14.66 42.05-13.28L42.05-13.28L42.05-13.28Q41.66-11.90 41.50-10.94L41.50-10.94L41.50-10.94Q41.34-9.98 41.28-9.66L41.28-9.66L41.28-9.66Q41.22-8.58 41.22-7.52L41.22-7.52L41.22-7.52Q41.22-6.46 41.50-5.60L41.50-5.60L41.50-5.60Q41.79-4.74 42.43-4.29L42.43-4.29L42.43-4.29Q43.07-3.84 44.35-4.03L44.35-4.03L44.35-4.03Q44.48-4.03 45.15-4.32L45.15-4.32L45.15-4.32Q45.82-4.61 45.95-4.54L45.95-4.54L45.95-4.54Q46.02-4.48 45.89-4.29L45.89-4.29L45.89-4.29Q45.76-4.10 45.50-3.87L45.50-3.87L45.50-3.87Q45.25-3.65 45.02-3.49L45.02-3.49L45.02-3.49Q44.80-3.33 44.74-3.26L44.74-3.26L44.74-3.26Q44.16-2.94 43.46-2.78L43.46-2.78L43.46-2.78Q42.75-2.62 42.08-2.75L42.08-2.75L42.08-2.75Q41.41-2.88 40.83-3.30L40.83-3.30L40.83-3.30Q40.26-3.71 40-4.48L40-4.48L40-4.48Q39.30-6.85 39.36-9.09L39.36-9.09L39.36-9.09Q39.49-11.33 39.94-13.54L39.94-13.54L39.94-13.54Q40.38-15.74 41.47-17.98L41.47-17.98L41.47-17.98Q42.11-19.71 43.49-21.57L43.49-21.57L43.49-21.57Q44.86-23.42 46.66-24.96L46.66-24.96L46.66-24.96Q48.45-26.50 50.40-27.52L50.40-27.52L50.40-27.52Q52.35-28.54 54.08-28.61L54.08-28.61L54.08-28.61Q54.34-28.61 54.59-28.61L54.59-28.61L54.59-28.61Q54.85-28.61 54.85-28.48ZM76.35-21.12L76.35-21.12L76.35-21.12Q76.54-21.95 76.58-23.04L76.58-23.04L76.58-23.04Q76.61-24.13 76.42-25.28L76.42-25.28L76.42-25.28Q76.22-26.43 75.74-27.49L75.74-27.49L75.74-27.49Q75.26-28.54 74.50-29.31L74.50-29.31L74.50-29.31Q74.11-29.57 74.05-29.57L74.05-29.57L74.05-29.57Q73.79-29.57 74.05-29.18L74.05-29.18L74.05-29.18Q74.43-28.35 74.34-26.59L74.34-26.59L74.34-26.59Q74.24-24.83 73.92-22.94L73.92-22.94L73.92-22.94Q73.60-21.06 73.25-19.55L73.25-19.55L73.25-19.55Q72.90-18.05 72.83-17.73L72.83-17.73L72.83-17.73Q72.38-16.58 72.03-14.85L72.03-14.85L72.03-14.85Q71.68-13.12 71.68-12.03L71.68-12.03L71.68-12.03Q71.62-11.90 71.62-11.52L71.62-11.52L71.62-11.52Q71.62-11.14 71.81-11.07L71.81-11.07L71.81-11.07Q71.87-11.07 72.06-11.39L72.06-11.39L72.06-11.39Q72.26-11.71 72.38-11.84L72.38-11.84L72.38-11.84Q73.54-13.89 74.59-16.32L74.59-16.32L74.59-16.32Q75.65-18.75 76.35-21.12ZM76.61-11.46L76.61-11.46L76.61-11.46Q76.86-12.61 77.44-14.43L77.44-14.43L77.44-14.43Q78.02-16.26 78.40-18.21L78.40-18.21L78.40-18.21Q78.78-20.16 78.78-22.05L78.78-22.05L78.78-22.05Q78.78-23.94 78.02-25.15L78.02-25.15L78.02-25.15Q77.76-25.41 77.63-25.41L77.63-25.41L77.63-25.41Q77.50-25.41 77.57-25.15L77.57-25.15L77.57-25.15Q77.57-22.72 77.02-20.64L77.02-20.64L77.02-20.64Q76.48-18.56 75.84-16.58L75.84-16.58L75.84-16.58Q74.75-13.31 73.86-10.21L73.86-10.21L73.86-10.21Q72.96-7.10 73.09-3.84L73.09-3.84L73.09-3.84Q73.09-3.65 73.12-3.42L73.12-3.42L73.12-3.42Q73.15-3.20 73.34-3.20L73.34-3.20L73.34-3.20Q73.47-3.20 73.54-3.33L73.54-3.33L73.54-3.33Q73.60-3.46 73.73-3.71L73.73-3.71L73.73-3.71Q74.37-5.25 75.20-7.33L75.20-7.33L75.20-7.33Q76.03-9.41 76.61-11.46ZM72.06 0L72.06 0L72.06 0Q70.85-1.28 70.21-2.85L70.21-2.85L70.21-2.85Q69.57-4.42 69.31-6.05L69.31-6.05L69.31-6.05Q69.06-7.68 69.18-9.34L69.18-9.34L69.18-9.34Q69.31-11.01 69.70-12.48L69.70-12.48L69.70-12.48Q70.27-14.78 71.17-17.09L71.17-17.09L71.17-17.09Q72.06-19.39 72.70-21.66L72.70-21.66L72.70-21.66Q73.34-23.94 73.44-26.14L73.44-26.14L73.44-26.14Q73.54-28.35 72.51-30.46L72.51-30.46L72.51-30.46Q72.32-30.78 72.26-30.78L72.26-30.78L72.26-30.78Q72.19-30.78 72.19-30.69L72.19-30.69L72.19-30.69Q72.19-30.59 72.26-30.53L72.26-30.53L72.26-30.53Q72.45-28.61 72-26.56L72-26.56L72-26.56Q71.55-24.51 70.85-22.37L70.85-22.37L70.85-22.37Q70.14-20.22 69.28-17.95L69.28-17.95L69.28-17.95Q68.42-15.68 67.84-13.31L67.84-13.31L67.84-13.31Q67.39-11.58 67.23-9.79L67.23-9.79L67.23-9.79Q67.07-8 67.46-6.24L67.46-6.24L67.46-6.24Q67.84-4.48 68.86-2.88L68.86-2.88L68.86-2.88Q69.89-1.28 71.81 0.06L71.81 0.06L71.81 0.06Q71.94 0.19 72.13 0.22L72.13 0.22L72.13 0.22Q72.32 0.26 72.06 0ZM72.58-2.43L72.58-2.43L72.58-2.43Q72.38-2.94 72.16-3.71L72.16-3.71L72.16-3.71Q71.94-4.48 71.81-5.18L71.81-5.18L71.81-5.18Q71.68-5.44 71.49-6.14L71.49-6.14L71.49-6.14Q71.30-6.85 71.17-6.85L71.17-6.85L71.17-6.85Q70.91-6.85 70.82-6.40L70.82-6.40L70.82-6.40Q70.72-5.95 70.72-5.28L70.72-5.28L70.72-5.28Q70.72-4.61 70.82-3.87L70.82-3.87L70.82-3.87Q70.91-3.14 71.10-2.62L71.10-2.62L71.10-2.62Q71.49-1.34 72.03-0.83L72.03-0.83L72.03-0.83Q72.58-0.32 73.47 0L73.47 0L73.47 0Q73.86 0.19 74.05 0.19L74.05 0.19L74.05 0.19Q74.11 0.19 74.08 0.10L74.08 0.10L74.08 0.10Q74.05 0 73.98 0L73.98 0L73.98 0Q73.54-0.51 73.18-1.09L73.18-1.09L73.18-1.09Q72.83-1.66 72.58-2.43ZM77.57-35.52L77.57-35.52L77.57-35.52Q77.25-35.52 76.58-35.62L76.58-35.62L76.58-35.62Q75.90-35.71 75.90-36.22L75.90-36.22L75.90-36.22Q75.90-36.42 76.48-36.70L76.48-36.70L76.48-36.70Q77.06-36.99 77.76-37.54L77.76-37.54L77.76-37.54Q78.46-38.08 79.04-38.94L79.04-38.94L79.04-38.94Q79.62-39.81 79.62-41.15L79.62-41.15L79.62-41.15Q79.62-42.82 78.98-43.65L78.98-43.65L78.98-43.65Q78.85-43.84 78.66-44.06L78.66-44.06L78.66-44.06Q78.46-44.29 78.53-44.35L78.53-44.35L78.53-44.35Q78.66-44.35 78.82-44.26L78.82-44.26L78.82-44.26Q78.98-44.16 79.04-44.10L79.04-44.10L79.04-44.10Q80.32-43.39 80.99-42.27L80.99-42.27L80.99-42.27Q81.66-41.15 81.66-40.13L81.66-40.13L81.66-40.13Q81.66-38.08 80.70-36.80L80.70-36.80L80.70-36.80Q79.74-35.52 77.57-35.52ZM75.20-38.08L75.20-38.08L75.20-38.08Q74.43-37.76 74.43-38.46L74.43-38.46L74.43-38.46Q74.43-38.98 74.82-39.46L74.82-39.46L74.82-39.46Q75.20-39.94 75.55-40.51L75.55-40.51L75.55-40.51Q75.90-41.09 76.03-41.82L76.03-41.82L76.03-41.82Q76.16-42.56 75.65-43.65L75.65-43.65L75.65-43.65Q75.52-43.97 75.20-44.35L75.20-44.35L75.20-44.35Q74.88-44.74 75.01-44.80L75.01-44.80L75.01-44.80Q75.14-44.86 75.55-44.70L75.55-44.70L75.55-44.70Q75.97-44.54 76.10-44.48L76.10-44.48L76.10-44.48Q77.18-43.97 77.73-42.94L77.73-42.94L77.73-42.94Q78.27-41.92 78.27-41.15L78.27-41.15L78.27-41.15Q78.27-39.94 77.28-39.14L77.28-39.14L77.28-39.14Q76.29-38.34 75.20-38.08ZM73.34-41.54L73.34-41.54L73.34-41.54Q73.34-41.86 73.54-42.27L73.54-42.27L73.54-42.27Q73.73-42.69 74.18-42.69L74.18-42.69L74.18-42.69Q74.50-42.69 74.69-42.27L74.69-42.27L74.69-42.27Q74.88-41.86 74.88-41.54L74.88-41.54L74.88-41.54Q74.88-41.28 74.69-40.86L74.69-40.86L74.69-40.86Q74.50-40.45 74.18-40.45L74.18-40.45L74.18-40.45Q73.73-40.45 73.54-40.83L73.54-40.83L73.54-40.83Q73.34-41.22 73.34-41.54ZM98.18-28.42L98.18-28.42L98.18-28.42Q98.24-28.35 98.24-28.13L98.24-28.13L98.24-28.13Q98.24-27.90 98.18-27.78L98.18-27.78L98.18-27.78Q97.60-25.92 96.19-25.15L96.19-25.15L96.19-25.15Q94.78-24.38 93.70-24.38L93.70-24.38L93.70-24.38Q92.35-24.38 90.94-24.61L90.94-24.61L90.94-24.61Q89.54-24.83 88.26-25.79L88.26-25.79L88.26-25.79Q88.13-25.92 87.94-26.05L87.94-26.05L87.94-26.05Q87.74-26.18 87.74-26.30L87.74-26.30L87.74-26.30Q87.74-26.50 87.94-26.59L87.94-26.59L87.94-26.59Q88.13-26.69 88.26-26.75L88.26-26.75L88.26-26.75Q88.83-26.88 89.76-26.98L89.76-26.98L89.76-26.98Q90.69-27.07 91.58-26.94L91.58-26.94L91.58-26.94Q92.22-26.82 93.12-26.82L93.12-26.82L93.12-26.82Q94.02-26.82 94.94-26.94L94.94-26.94L94.94-26.94Q95.87-27.07 96.64-27.36L96.64-27.36L96.64-27.36Q97.41-27.65 97.79-28.22L97.79-28.22L97.79-28.22Q97.98-28.48 98.18-28.42ZM98.62-30.40L98.62-30.40L98.43-30.08L98.43-30.08Q97.34-28.67 96.13-28.26L96.13-28.26L96.13-28.26Q94.91-27.84 93.57-27.90L93.57-27.90L93.57-27.90Q92.22-27.97 90.85-28.26L90.85-28.26L90.85-28.26Q89.47-28.54 88.13-28.61L88.13-28.61L88.13-28.61Q86.34-28.67 84.54-27.52L84.54-27.52L84.54-27.52Q82.75-26.37 81.47-23.49L81.47-23.49L81.47-23.49Q81.28-23.10 81.22-23.33L81.22-23.33L81.22-23.33Q81.15-23.55 81.22-23.74L81.22-23.74L81.22-23.74Q81.73-25.66 82.43-26.94L82.43-26.94L82.43-26.94Q83.14-28.22 83.94-29.02L83.94-29.02L83.94-29.02Q84.74-29.82 85.63-30.21L85.63-30.21L85.63-30.21Q86.53-30.59 87.49-30.72L87.49-30.72L87.49-30.72Q88.58-34.37 89.18-37.86L89.18-37.86L89.18-37.86Q89.79-41.34 89.28-44.48L89.28-44.48L89.28-44.48Q89.28-44.74 89.28-44.74L89.28-44.74L89.28-44.74Q89.41-44.80 89.54-44.67L89.54-44.67L89.54-44.67Q89.66-44.54 89.66-44.48L89.66-44.48L89.66-44.48Q91.07-41.41 90.82-37.92L90.82-37.92L90.82-37.92Q90.56-34.43 89.54-30.59L89.54-30.59L89.54-30.59Q89.86-30.53 90.05-30.53L90.05-30.53L90.05-30.53Q90.24-30.53 90.50-30.53L90.50-30.53L90.50-30.53Q90.82-32.19 91.10-34.08L91.10-34.08L91.10-34.08Q91.39-35.97 91.55-37.70L91.55-37.70L91.55-37.70Q91.71-39.42 91.65-40.83L91.65-40.83L91.65-40.83Q91.58-42.24 91.20-42.94L91.20-42.94L91.20-42.94Q91.01-43.52 91.20-43.52L91.20-43.52L91.20-43.52Q91.33-43.52 91.39-43.39L91.39-43.39L91.39-43.39Q91.46-43.26 91.58-43.14L91.58-43.14L91.58-43.14Q92.48-42.24 92.99-40.70L92.99-40.70L92.99-40.70Q93.50-39.17 93.70-37.44L93.70-37.44L93.70-37.44Q93.89-35.71 93.82-34.02L93.82-34.02L93.82-34.02Q93.76-32.32 93.44-31.04L93.44-31.04L93.18-30.02L93.18-30.02Q93.38-29.89 93.57-29.89L93.57-29.89L93.57-29.89Q93.76-29.89 93.95-29.82L93.95-29.82L93.95-29.82Q94.34-31.74 94.62-33.66L94.62-33.66L94.62-33.66Q94.91-35.58 94.85-37.70L94.85-37.70L94.85-37.70Q94.85-38.14 94.91-38.14L94.91-38.14L94.91-38.14Q95.04-38.14 95.10-37.95L95.10-37.95L95.10-37.95Q95.17-37.76 95.23-37.63L95.23-37.63L95.23-37.63Q96-36.22 95.97-34.11L95.97-34.11L95.97-34.11Q95.94-32 95.62-29.63L95.62-29.63L95.62-29.63Q97.02-29.63 98.30-30.40L98.30-30.40L98.30-30.40Q98.62-30.59 98.62-30.40ZM85.38-26.05L85.38-26.05L85.38-26.05Q85.38-25.73 85.02-25.41L85.02-25.41L85.02-25.41Q84.67-25.09 84.48-24.96L84.48-24.96L84.48-24.96Q84.16-24.70 83.74-24.35L83.74-24.35L83.74-24.35Q83.33-24 83.01-23.62L83.01-23.62L83.01-23.62Q82.69-23.10 82.40-22.72L82.40-22.72L82.40-22.72Q82.11-22.34 81.92-21.63L81.92-21.63L81.92-21.63Q81.86-21.50 81.76-21.41L81.76-21.41L81.76-21.41Q81.66-21.31 81.60-21.38L81.60-21.38L81.60-21.38Q81.41-21.57 81.60-22.21L81.60-22.21L81.60-22.21Q81.86-23.17 82.11-23.78L82.11-23.78L82.11-23.78Q82.37-24.38 83.07-25.09L83.07-25.09L83.07-25.09Q83.33-25.34 83.71-25.60L83.71-25.60L83.71-25.60Q84.10-25.86 84.48-26.05L84.48-26.05L84.48-26.05Q84.86-26.24 85.12-26.24L85.12-26.24L85.12-26.24Q85.38-26.24 85.38-26.05ZM90.37-0.32L90.37-0.32L90.37-0.32Q90.69-0.45 90.62-0.26L90.62-0.26L90.62-0.26Q90.56-0.06 90.43 0L90.43 0L90.43 0Q89.28 0.38 88-0.13L88-0.13L88-0.13Q86.72-0.64 85.63-1.73L85.63-1.73L85.63-1.73Q84.54-2.82 83.78-4.26L83.78-4.26L83.78-4.26Q83.01-5.70 82.82-7.10L82.82-7.10L82.82-7.10Q82.50-10.11 82.75-12.93L82.75-12.93L82.75-12.93Q83.01-15.74 83.71-18.50L83.71-18.50L84.80-22.53L84.80-22.53Q84.42-22.53 84.03-22.72L84.03-22.72L84.03-22.72Q83.58-22.85 83.58-23.04L83.58-23.04L83.58-23.04Q83.58-23.17 84.03-23.42L84.03-23.42L84.03-23.42Q85.82-24.32 87.65-24.19L87.65-24.19L87.65-24.19Q89.47-24.06 91.33-23.74L91.33-23.74L91.33-23.74Q92.48-23.55 93.66-23.46L93.66-23.46L93.66-23.46Q94.85-23.36 96.26-23.94L96.26-23.94L96.26-23.94Q96.38-24.06 96.51-24L96.51-24L96.51-24Q96.64-23.87 96.45-23.55L96.45-23.55L96.45-23.55Q96.06-22.72 95.36-22.34L95.36-22.34L95.36-22.34Q94.66-21.95 93.89-21.76L93.89-21.76L93.89-21.76Q93.38-20.10 92.99-18.78L92.99-18.78L92.99-18.78Q92.61-17.47 92.35-16.58L92.35-16.58L92.35-16.58Q91.65-13.50 90.72-10.34L90.72-10.34L90.72-10.34Q89.79-7.17 89.47-4.99L89.47-4.99L89.47-4.99Q89.34-4.29 89.22-4.22L89.22-4.22L89.22-4.22Q89.09-4.16 88.96-4.48L88.96-4.48L88.96-4.48Q88.83-4.80 88.77-4.99L88.77-4.99L88.77-4.99Q88.51-6.85 88.67-8.86L88.67-8.86L88.67-8.86Q88.83-10.88 89.28-12.99L89.28-12.99L89.28-12.99Q89.73-15.10 90.30-17.25L90.30-17.25L90.30-17.25Q90.88-19.39 91.52-21.57L91.52-21.57L91.52-21.57Q91.20-21.57 90.88-21.57L90.88-21.57L90.88-21.57Q90.56-21.57 90.24-21.63L90.24-21.63L90.24-21.63Q89.73-20.29 89.18-18.98L89.18-18.98L89.18-18.98Q88.64-17.66 88.13-16.51L88.13-16.51L88.13-16.51Q88.06-16.38 87.84-15.90L87.84-15.90L87.84-15.90Q87.62-15.42 87.49-15.42L87.49-15.42L87.49-15.42Q87.23-15.49 87.30-16.03L87.30-16.03L87.30-16.03Q87.36-16.58 87.36-16.77L87.36-16.77L87.36-16.77Q87.49-17.73 87.78-19.01L87.78-19.01L87.78-19.01Q88.06-20.29 88.32-21.76L88.32-21.76L88.32-21.76Q88-21.82 87.62-21.86L87.62-21.86L87.62-21.86Q87.23-21.89 86.85-22.02L86.85-22.02L86.85-22.02Q86.46-20.74 86.11-19.52L86.11-19.52L86.11-19.52Q85.76-18.30 85.44-17.09L85.44-17.09L85.44-17.09Q84.93-14.85 84.67-12.32L84.67-12.32L84.67-12.32Q84.42-9.79 84.67-7.10L84.67-7.10L84.67-7.10Q84.80-5.89 85.34-4.61L85.34-4.61L85.34-4.61Q85.89-3.33 86.66-2.30L86.66-2.30L86.66-2.30Q87.42-1.28 88.42-0.70L88.42-0.70L88.42-0.70Q89.41-0.13 90.37-0.32ZM90.94-1.73L90.94-1.73L90.94-1.73Q91.26-1.98 91.33-1.76L91.33-1.76L91.33-1.76Q91.39-1.54 91.07-1.34L91.07-1.34L91.07-1.34Q90.82-1.15 90.40-1.06L90.40-1.06L90.40-1.06Q89.98-0.96 89.47-1.02L89.47-1.02L89.47-1.02Q88.96-1.09 88.38-1.41L88.38-1.41L88.38-1.41Q87.81-1.73 87.30-2.43L87.30-2.43L87.30-2.43Q86.85-3.01 86.56-4.10L86.56-4.10L86.56-4.10Q86.27-5.18 86.14-6.24L86.14-6.24L86.14-6.24Q86.02-7.30 86.08-8.06L86.08-8.06L86.08-8.06Q86.14-8.83 86.40-8.83L86.40-8.83L86.40-8.83Q86.72-8.83 86.88-7.94L86.88-7.94L86.88-7.94Q87.04-7.04 87.17-6.46L87.17-6.46L87.17-6.46Q87.42-5.44 87.87-4.35L87.87-4.35L87.87-4.35Q88.32-3.26 88.83-2.62L88.83-2.62L88.83-2.62Q89.47-1.79 89.98-1.63L89.98-1.63L89.98-1.63Q90.50-1.47 90.94-1.73Z" fill="url(#editing-gradient-gradient)"></path></g></g><style>text {
  font-size: 64px;
  font-family: Arial Black;
  dominant-baseline: central;
  text-anchor: middle;
}</style></svg>